<svg xmlns="http://www.w3.org/2000/svg" width="1200" height="675" viewBox="0 0 1200 675" font-family="Helvetica, Arial, sans-serif">
<defs><filter id="soft" x="-50%" y="-50%" width="200%" height="200%"><feGaussianBlur stdDeviation="4"/></filter>
<linearGradient id="coffee" x1="0" y1="0" x2="0" y2="1"><stop offset="0" stop-color="#4a2410"/><stop offset="1" stop-color="#1e0d05"/></linearGradient>
<linearGradient id="foam" x1="0" y1="0" x2="0" y2="1"><stop offset="0" stop-color="#f8e7bd"/><stop offset="1" stop-color="#e2b768"/></linearGradient>
<radialGradient id="foamTop" cx="0.45" cy="0.6" r="0.7"><stop offset="0" stop-color="#fff3d2"/><stop offset="1" stop-color="#ecc985"/></radialGradient>
<linearGradient id="glass" x1="0" y1="0" x2="1" y2="0"><stop offset="0" stop-color="#ffffff" stop-opacity="0.12"/><stop offset="0.5" stop-color="#ffffff" stop-opacity="0.02"/><stop offset="1" stop-color="#ffffff" stop-opacity="0.1"/></linearGradient>
<linearGradient id="steel" x1="0" y1="0" x2="1" y2="0"><stop offset="0" stop-color="#6e767e"/><stop offset="0.35" stop-color="#d9dee2"/><stop offset="0.6" stop-color="#a7aeb4"/><stop offset="1" stop-color="#5a6168"/></linearGradient></defs>
<rect width="1200" height="675" fill="#140e09"/>
<rect x="40" y="40" width="360" height="595" rx="22" fill="#211810" stroke="#3a2a1c" stroke-width="2"/><circle cx="86" cy="86" r="22" fill="#e9c27a"/><text x="86" y="94" fill="#211810" font-size="22" font-weight="700" text-anchor="middle">1</text><text x="220" y="560" fill="#f3e6cf" font-size="25" font-weight="700" text-anchor="middle">Brew strong coffee</text><text x="220" y="595" fill="#a8957f" font-size="19" text-anchor="middle">Phin filter, about 5 minutes</text><rect x="420" y="40" width="360" height="595" rx="22" fill="#211810" stroke="#3a2a1c" stroke-width="2"/><circle cx="466" cy="86" r="22" fill="#e9c27a"/><text x="466" y="94" fill="#211810" font-size="22" font-weight="700" text-anchor="middle">2</text><text x="600" y="560" fill="#f3e6cf" font-size="25" font-weight="700" text-anchor="middle">Whisk yolk + condensed milk</text><text x="600" y="595" fill="#a8957f" font-size="19" text-anchor="middle">Until thick and pale, 3 to 5 minutes</text><rect x="800" y="40" width="360" height="595" rx="22" fill="#211810" stroke="#3a2a1c" stroke-width="2"/><circle cx="846" cy="86" r="22" fill="#e9c27a"/><text x="846" y="94" fill="#211810" font-size="22" font-weight="700" text-anchor="middle">3</text><text x="980" y="560" fill="#f3e6cf" font-size="25" font-weight="700" text-anchor="middle">Spoon the foam on top</text><text x="980" y="595" fill="#a8957f" font-size="19" text-anchor="middle">Serve in a bowl of hot water</text><clipPath id="cup220330"><path d="M145,330 L160,470 Q220,484 280,470 L295,330 Z"/></clipPath>
<g clip-path="url(#cup220330)">
<rect x="140" y="393" width="160" height="97" fill="url(#coffee)"/>
<rect x="140" y="325" width="160" height="68" fill="url(#coffee)"/>
<path d="M145,393 q37.5,6 75,0 t75,0" fill="none" stroke="#c99a52" stroke-width="5" opacity="0.6"/>

</g>
<path d="M147,330 C155,330 285,330 293,330 Z" fill="none"/>

<path d="M145,330 L160,470 Q220,484 280,470 L295,330 Z" fill="url(#glass)" stroke="#ffffff" stroke-opacity="0.45" stroke-width="2.5"/>
<path d="M159,346 L172,458" stroke="#ffffff" stroke-opacity="0.28" stroke-width="7" stroke-linecap="round"/>
<ellipse cx="220" cy="330" rx="75" ry="6" fill="none" stroke="#ffffff" stroke-opacity="0.5" stroke-width="2"/><g>
<ellipse cx="220" cy="318" rx="71.3" ry="11.5" fill="url(#steel)" stroke="#4b5157" stroke-width="1.5"/>
<path d="M177.4,313.4 L183.2,237.5 L256.8,237.5 L262.6,313.4 Z" fill="url(#steel)" stroke="#4b5157" stroke-width="1.5"/>
<ellipse cx="220" cy="237.5" rx="39.1" ry="8" fill="#c9cfd4" stroke="#4b5157" stroke-width="1.5"/>
<ellipse cx="220" cy="230.6" rx="41.4" ry="9.2" fill="url(#steel)" stroke="#4b5157" stroke-width="1.5"/>
<rect x="211.9" y="214.5" width="16.1" height="13.8" rx="4.6" fill="url(#steel)" stroke="#4b5157" stroke-width="1.5"/>
</g><path d="M216,345 q4,8 0,12 q-4,-4 0,-12 Z" fill="#3b1a0a"/><path d="M224,372 q4,8 0,12 q-4,-4 0,-12 Z" fill="#3b1a0a"/><path d="M470,360 C480,470 720,470 730,360 Z" fill="#c9b9a4"/><path d="M478,362 C520,330 560,300 590,318 C620,286 670,322 722,362 Z" fill="url(#foamTop)"/><circle cx="623.4" cy="349.3" r="3.1" fill="#fffaf0" opacity="0.6"/><circle cx="684.1" cy="349.2" r="3.3" fill="#fffaf0" opacity="0.6"/><circle cx="510.5" cy="342.1" r="3.4" fill="#fffaf0" opacity="0.6"/><circle cx="628.3" cy="353.4" r="1.7" fill="#fffaf0" opacity="0.6"/><circle cx="594.1" cy="336.4" r="2.6" fill="#fffaf0" opacity="0.6"/><circle cx="614" cy="330.3" r="1.9" fill="#fffaf0" opacity="0.6"/><circle cx="558.1" cy="353.8" r="3" fill="#fffaf0" opacity="0.6"/><circle cx="535.3" cy="350.7" r="1.8" fill="#fffaf0" opacity="0.6"/><circle cx="622.3" cy="333.3" r="1.5" fill="#fffaf0" opacity="0.6"/><circle cx="670.6" cy="335.4" r="1.9" fill="#fffaf0" opacity="0.6"/><circle cx="691.7" cy="352.7" r="2.1" fill="#fffaf0" opacity="0.6"/><circle cx="687.7" cy="344" r="2.9" fill="#fffaf0" opacity="0.6"/><circle cx="543.9" cy="354.5" r="2.9" fill="#fffaf0" opacity="0.6"/><circle cx="688.6" cy="353.2" r="2.1" fill="#fffaf0" opacity="0.6"/><circle cx="573.6" cy="334.3" r="1.8" fill="#fffaf0" opacity="0.6"/><circle cx="517.4" cy="337.8" r="2.7" fill="#fffaf0" opacity="0.6"/><circle cx="505.6" cy="347.6" r="2.2" fill="#fffaf0" opacity="0.6"/><circle cx="563.9" cy="351.3" r="2.5" fill="#fffaf0" opacity="0.6"/><circle cx="565" cy="342.5" r="2.9" fill="#fffaf0" opacity="0.6"/><circle cx="515.8" cy="355.4" r="1.5" fill="#fffaf0" opacity="0.6"/><circle cx="647.5" cy="352" r="1.5" fill="#fffaf0" opacity="0.6"/><circle cx="654.7" cy="339.5" r="2.7" fill="#fffaf0" opacity="0.6"/><circle cx="506.7" cy="331.2" r="1.9" fill="#fffaf0" opacity="0.6"/><circle cx="686.5" cy="335.1" r="3" fill="#fffaf0" opacity="0.6"/><circle cx="681.6" cy="354.5" r="2.2" fill="#fffaf0" opacity="0.6"/><circle cx="572.4" cy="343.6" r="3.1" fill="#fffaf0" opacity="0.6"/><ellipse cx="600" cy="360" rx="130" ry="20" fill="none" stroke="#efe6d9" stroke-width="5"/><g transform="translate(640,300) rotate(32)"><path d="M0,-40 C-41.6,10 -22.4,70 0,78 C3.2,70 -6.4,10 0,-40" fill="none" stroke="#c9cfd4" stroke-width="2.5"/><path d="M0,-40 C-15.600000000000001,10 -8.399999999999999,70 0,78 C1.2000000000000002,70 -2.4000000000000004,10 0,-40" fill="none" stroke="#c9cfd4" stroke-width="2.5"/><path d="M0,-40 C15.600000000000001,10 8.399999999999999,70 0,78 C-1.2000000000000002,70 2.4000000000000004,10 0,-40" fill="none" stroke="#c9cfd4" stroke-width="2.5"/><path d="M0,-40 C41.6,10 22.4,70 0,78 C-3.2,70 6.4,10 0,-40" fill="none" stroke="#c9cfd4" stroke-width="2.5"/><rect x="-7" y="-150" width="14" height="115" rx="7" fill="url(#steel)"/></g><clipPath id="cup960270"><path d="M880,270 L896,470 Q960,484 1024,470 L1040,270 Z"/></clipPath>
<g clip-path="url(#cup960270)">
<rect x="875" y="386" width="170" height="104" fill="url(#coffee)"/>
<rect x="875" y="265" width="170" height="121" fill="url(#foam)"/>
<path d="M880,386 q40,6 80,0 t80,0" fill="none" stroke="#c99a52" stroke-width="5" opacity="0.6"/>
<circle cx="908.3" cy="353.3" r="3" fill="#fff8e6" opacity="0.6"/><circle cx="898.8" cy="372.7" r="1.4" fill="#fff8e6" opacity="0.4"/><circle cx="974.6" cy="370" r="1.9" fill="#fff8e6" opacity="0.6"/><circle cx="966" cy="310.6" r="1.9" fill="#fff8e6" opacity="0.3"/><circle cx="904.3" cy="294.6" r="2.7" fill="#fff8e6" opacity="0.6"/><circle cx="915.3" cy="284.8" r="3.4" fill="#fff8e6" opacity="0.4"/><circle cx="947.6" cy="303.3" r="2.5" fill="#fff8e6" opacity="0.5"/><circle cx="954.1" cy="321.3" r="1.3" fill="#fff8e6" opacity="0.6"/><circle cx="898.3" cy="328.4" r="3" fill="#fff8e6" opacity="0.3"/><circle cx="990.6" cy="373.1" r="2.6" fill="#fff8e6" opacity="0.5"/><circle cx="908.1" cy="322.6" r="1.5" fill="#fff8e6" opacity="0.5"/><circle cx="932.9" cy="324.4" r="3.4" fill="#fff8e6" opacity="0.5"/><circle cx="1022.8" cy="324.4" r="2.3" fill="#fff8e6" opacity="0.5"/><circle cx="957.2" cy="308.5" r="2.1" fill="#fff8e6" opacity="0.3"/><circle cx="943.8" cy="376.9" r="3.3" fill="#fff8e6" opacity="0.5"/><circle cx="959.9" cy="313.2" r="1.4" fill="#fff8e6" opacity="0.3"/><circle cx="997.2" cy="365" r="2" fill="#fff8e6" opacity="0.5"/><circle cx="996.3" cy="348.1" r="2.7" fill="#fff8e6" opacity="0.5"/><circle cx="942" cy="349" r="1.8" fill="#fff8e6" opacity="0.4"/><circle cx="995.6" cy="347.7" r="1.8" fill="#fff8e6" opacity="0.6"/><circle cx="979.8" cy="336.9" r="1.2" fill="#fff8e6" opacity="0.4"/><circle cx="927.1" cy="345.8" r="2.2" fill="#fff8e6" opacity="0.5"/><circle cx="979.5" cy="358.2" r="2" fill="#fff8e6" opacity="0.5"/><circle cx="991.4" cy="361.2" r="2" fill="#fff8e6" opacity="0.5"/><circle cx="1008.8" cy="347.5" r="3.3" fill="#fff8e6" opacity="0.6"/><circle cx="962.4" cy="331.9" r="1.6" fill="#fff8e6" opacity="0.5"/><circle cx="1017.7" cy="326.8" r="2.7" fill="#fff8e6" opacity="0.5"/><circle cx="990.4" cy="296.8" r="2.9" fill="#fff8e6" opacity="0.5"/><circle cx="981.9" cy="321.2" r="2.6" fill="#fff8e6" opacity="0.5"/><circle cx="978.1" cy="350.6" r="1.3" fill="#fff8e6" opacity="0.3"/><circle cx="952.2" cy="343.7" r="1.7" fill="#fff8e6" opacity="0.5"/><circle cx="977.3" cy="284.1" r="2.2" fill="#fff8e6" opacity="0.3"/><circle cx="901.1" cy="293.1" r="1.9" fill="#fff8e6" opacity="0.3"/><circle cx="919.5" cy="283.5" r="2.2" fill="#fff8e6" opacity="0.4"/><circle cx="974.8" cy="337.8" r="1.7" fill="#fff8e6" opacity="0.6"/><circle cx="894.1" cy="319.7" r="1.8" fill="#fff8e6" opacity="0.4"/><circle cx="909.2" cy="361.5" r="2" fill="#fff8e6" opacity="0.3"/><circle cx="975" cy="289.3" r="2.4" fill="#fff8e6" opacity="0.4"/><circle cx="970.7" cy="373.9" r="3" fill="#fff8e6" opacity="0.4"/><circle cx="1001.3" cy="342.9" r="2" fill="#fff8e6" opacity="0.3"/>
</g>
<path d="M882,270 C890,236.4 1030,236.4 1038,270 Z" fill="url(#foamTop)"/>
<circle cx="920.4" cy="255.4" r="1.8" fill="#7a4a22" opacity="0.75"/><circle cx="1008.9" cy="257.8" r="1.2" fill="#7a4a22" opacity="0.75"/><circle cx="961.5" cy="259" r="0.9" fill="#7a4a22" opacity="0.75"/><circle cx="914" cy="256.4" r="0.9" fill="#7a4a22" opacity="0.75"/><circle cx="918.5" cy="253" r="1.2" fill="#7a4a22" opacity="0.75"/><circle cx="932.3" cy="261" r="1.1" fill="#7a4a22" opacity="0.75"/><circle cx="998.9" cy="258.2" r="1.8" fill="#7a4a22" opacity="0.75"/><circle cx="1002.3" cy="255.6" r="1.1" fill="#7a4a22" opacity="0.75"/><circle cx="1004.8" cy="258.4" r="1.2" fill="#7a4a22" opacity="0.75"/><circle cx="933.3" cy="267.3" r="1.3" fill="#7a4a22" opacity="0.75"/><circle cx="950" cy="265.3" r="0.9" fill="#7a4a22" opacity="0.75"/><circle cx="929.2" cy="255.1" r="1.1" fill="#7a4a22" opacity="0.75"/><circle cx="971.5" cy="251.2" r="0.8" fill="#7a4a22" opacity="0.75"/><circle cx="927.2" cy="258.2" r="1.7" fill="#7a4a22" opacity="0.75"/><circle cx="966.3" cy="254.8" r="1.1" fill="#7a4a22" opacity="0.75"/><circle cx="995.8" cy="266.6" r="1.1" fill="#7a4a22" opacity="0.75"/><circle cx="925.7" cy="255.3" r="1.4" fill="#7a4a22" opacity="0.75"/><circle cx="916.2" cy="254.5" r="0.9" fill="#7a4a22" opacity="0.75"/><circle cx="962.3" cy="254.3" r="1.3" fill="#7a4a22" opacity="0.75"/><circle cx="942" cy="263.4" r="1.3" fill="#7a4a22" opacity="0.75"/><circle cx="922.5" cy="260.4" r="1.5" fill="#7a4a22" opacity="0.75"/><circle cx="949.7" cy="258.3" r="1.1" fill="#7a4a22" opacity="0.75"/><circle cx="901.1" cy="261.6" r="1.7" fill="#7a4a22" opacity="0.75"/><circle cx="952.6" cy="258.9" r="1.6" fill="#7a4a22" opacity="0.75"/><circle cx="916.4" cy="262.2" r="1.5" fill="#7a4a22" opacity="0.75"/><circle cx="930" cy="254.6" r="1.7" fill="#7a4a22" opacity="0.75"/><circle cx="929.9" cy="262.9" r="1.7" fill="#7a4a22" opacity="0.75"/><circle cx="971.5" cy="263.8" r="1.6" fill="#7a4a22" opacity="0.75"/><circle cx="1013.6" cy="262.5" r="1.5" fill="#7a4a22" opacity="0.75"/><circle cx="928.8" cy="261.2" r="1.6" fill="#7a4a22" opacity="0.75"/><circle cx="980.5" cy="257.4" r="1.3" fill="#7a4a22" opacity="0.75"/><circle cx="917" cy="257.3" r="1.1" fill="#7a4a22" opacity="0.75"/><circle cx="987.9" cy="264.9" r="1.6" fill="#7a4a22" opacity="0.75"/><circle cx="987.9" cy="261" r="1.6" fill="#7a4a22" opacity="0.75"/><circle cx="973.5" cy="252.1" r="0.8" fill="#7a4a22" opacity="0.75"/><circle cx="949.2" cy="250.4" r="1.8" fill="#7a4a22" opacity="0.75"/><circle cx="955.7" cy="257.3" r="1.6" fill="#7a4a22" opacity="0.75"/><circle cx="969.9" cy="266.3" r="1.8" fill="#7a4a22" opacity="0.75"/><circle cx="954.5" cy="256" r="1.1" fill="#7a4a22" opacity="0.75"/><circle cx="981.5" cy="257.5" r="1.4" fill="#7a4a22" opacity="0.75"/><circle cx="938" cy="261.1" r="1.4" fill="#7a4a22" opacity="0.75"/><circle cx="980.3" cy="260" r="1.2" fill="#7a4a22" opacity="0.75"/><circle cx="973.8" cy="260.1" r="1.4" fill="#7a4a22" opacity="0.75"/><circle cx="957.1" cy="250.8" r="0.9" fill="#7a4a22" opacity="0.75"/><circle cx="927.4" cy="261.3" r="1.4" fill="#7a4a22" opacity="0.75"/><circle cx="898.1" cy="259.8" r="1.2" fill="#7a4a22" opacity="0.75"/><circle cx="1010.2" cy="261.8" r="1" fill="#7a4a22" opacity="0.75"/><circle cx="929.1" cy="254.5" r="1.7" fill="#7a4a22" opacity="0.75"/><circle cx="912.5" cy="256.8" r="1.1" fill="#7a4a22" opacity="0.75"/><circle cx="929.4" cy="257.8" r="1.6" fill="#7a4a22" opacity="0.75"/><circle cx="936.7" cy="258.8" r="1" fill="#7a4a22" opacity="0.75"/><circle cx="922.1" cy="264.8" r="1" fill="#7a4a22" opacity="0.75"/><circle cx="948.2" cy="252.1" r="0.9" fill="#7a4a22" opacity="0.75"/><circle cx="950.5" cy="256.8" r="0.9" fill="#7a4a22" opacity="0.75"/><circle cx="934" cy="256.8" r="1.7" fill="#7a4a22" opacity="0.75"/>
<path d="M880,270 L896,470 Q960,484 1024,470 L1040,270 Z" fill="url(#glass)" stroke="#ffffff" stroke-opacity="0.45" stroke-width="2.5"/>
<path d="M894,286 L908,458" stroke="#ffffff" stroke-opacity="0.28" stroke-width="7" stroke-linecap="round"/>
<ellipse cx="960" cy="270" rx="80" ry="6" fill="none" stroke="#ffffff" stroke-opacity="0.5" stroke-width="2"/><line x1="1038" y1="318" x2="1060" y2="318" stroke="#a8957f" stroke-width="2"/><text x="1068" y="313.0" fill="#d9c7a8" font-size="18">egg</text><text x="1068" y="335.0" fill="#d9c7a8" font-size="18">foam</text><line x1="1028" y1="430" x2="1060" y2="430" stroke="#a8957f" stroke-width="2"/><text x="1068" y="436.0" fill="#d9c7a8" font-size="18">coffee</text>
</svg>